<svg width="23" height="27" viewBox="0 0 23 27" fill="none" xmlns="http://www.w3.org/2000/svg">
<path d="M15.149 16.4731C15.724 18.2568 16.0153 19.8181 16.0153 21.1643C16.0153 24.1631 14.8415 26.4743 12.8903 26.4743C11.8903 26.4743 11.5428 25.9118 11.1615 24.5406L10.824 23.2643C10.699 22.8156 10.479 22.0518 10.1665 20.9756C10.1581 20.9468 10.1454 20.9194 10.129 20.8943L6.54654 15.2868C5.69876 13.9604 4.44792 12.9409 2.97779 12.3781L1.40654 11.7781C0.925554 11.5942 0.524832 11.2466 0.274919 10.7964C0.0250052 10.3462 -0.0580783 9.82225 0.0402939 9.31681L0.897794 4.89306C1.0004 4.3655 1.25202 3.87838 1.62286 3.48937C1.9937 3.10037 2.46824 2.82576 2.99029 2.69806L13.3028 0.170557C14.8229 -0.201847 16.4286 0.0409825 17.7706 0.846232C19.1126 1.65148 20.0824 2.95402 20.469 4.47056L22.4365 12.1868C22.5659 12.6943 22.5775 13.2246 22.4706 13.7373C22.3637 14.25 22.141 14.7315 21.8196 15.145C21.4983 15.5585 21.0866 15.8931 20.6162 16.1233C20.1458 16.3534 19.629 16.4731 19.1053 16.4731H15.149V16.4731Z" fill="#C4C4C4"/>
</svg>
