<svg width="23" height="27" viewBox="0 0 23 27" fill="none" xmlns="http://www.w3.org/2000/svg">
<path d="M13.9777 0.0841572C12.5715 -0.307718 11.4727 0.742282 11.0808 1.71916C10.6308 2.84416 10.2315 3.63166 9.75709 4.57666C9.46459 5.15791 9.14209 5.80291 8.75771 6.62041C7.86709 8.51228 6.98021 9.72541 6.33334 10.4529C6.09826 10.7223 5.84451 10.9748 5.57396 11.2085C5.51252 11.2606 5.44937 11.3107 5.38459 11.3585L5.35459 11.381L1.84459 13.4529C1.08472 13.9012 0.507234 14.603 0.213679 15.435C-0.0798767 16.267 -0.0707026 17.1758 0.239588 18.0017L1.21459 20.5967C1.41502 21.1294 1.7341 21.6096 2.14765 22.0007C2.5612 22.3918 3.05837 22.6837 3.60146 22.8542L13.644 26.0098C14.2383 26.1965 14.864 26.2628 15.4843 26.2049C16.1046 26.147 16.7071 25.9661 17.2567 25.6726C17.8063 25.3792 18.2918 24.9791 18.685 24.4958C19.0781 24.0125 19.371 23.4557 19.5465 22.8579L22.104 14.1467C22.2684 13.5873 22.3001 12.9973 22.1966 12.4236C22.0931 11.8498 21.8573 11.3081 21.5078 10.8414C21.1584 10.3747 20.7049 9.99597 20.1835 9.73519C19.662 9.47442 19.087 9.33882 18.504 9.33916H15.909C16.0327 8.91541 16.1583 8.44291 16.2746 7.95166C16.5202 6.89978 16.7302 5.69603 16.7096 4.69478C16.6927 3.76103 16.5971 2.78228 16.2146 1.95353C15.804 1.06103 15.0858 0.391657 13.9796 0.0841572H13.9777Z" fill="#FF3466"/>
</svg>
